<?xml version="1.0" encoding="UTF-8" standalone="no"?>
<svg
   height="100.8"
   width="188.39999"
   fill="#000000"
   version="1.1"
   x="0px"
   y="0px"
   viewBox="0 0 62.799998 33.600001"
   xml:space="preserve"
   id="svg8"
   sodipodi:docname="eye.svg"
   inkscape:version="1.1 (c68e22c387, 2021-05-23)"
   xmlns:inkscape="http://www.inkscape.org/namespaces/inkscape"
   xmlns:sodipodi="http://sodipodi.sourceforge.net/DTD/sodipodi-0.dtd"
   xmlns="http://www.w3.org/2000/svg"
   xmlns:svg="http://www.w3.org/2000/svg"><defs
     id="defs12" /><sodipodi:namedview
     id="namedview10"
     pagecolor="#505050"
     bordercolor="#eeeeee"
     borderopacity="1"
     inkscape:pageshadow="0"
     inkscape:pageopacity="0"
     inkscape:pagecheckerboard="0"
     showgrid="false"
     inkscape:zoom="2.9033333"
     inkscape:cx="82.146958"
     inkscape:cy="48.737084"
     inkscape:window-width="934"
     inkscape:window-height="514"
     inkscape:window-x="968"
     inkscape:window-y="548"
     inkscape:window-maximized="1"
     inkscape:current-layer="svg8" /><path
     d="M 62.2,15.7 C 58.7,10.9 54.1,7 49,4.3 46.4,2.9 43.6,1.9 40.7,1.1 37.7,0.4 34.7,0 31.6,0 28.5,0 25.5,0.4 22.5,1.1 19.6,1.8 16.8,2.9 14.2,4.3 9,7 4.5,10.9 1,15.7 l -1,1.1 0.8,1.1 c 3.5,4.8 8.1,8.7 13.2,11.4 2.6,1.4 5.4,2.4 8.3,3.2 3,0.7 6,1.1 9.1,1.1 3.1,0 6.1,-0.4 9.1,-1.1 2.9,-0.7 5.7,-1.8 8.3,-3.2 C 54,26.6 58.5,22.7 62,17.9 l 0.8,-1.1 z M 31.5,29.8 c -7.2,0 -13,-5.8 -13,-13 0,-7.2 5.8,-13 13,-13 7.2,0 13,5.8 13,13 0,7.2 -5.8,13 -13,13 z"
     id="path2"
     style="fill:#aaaaaa;fill-opacity:1" /><g
     id="g6"
     style="fill:#aaaaaa;fill-opacity:1"
     transform="translate(-18.500002,-33.2)"><path
       d="m 58.2,50 c 0,4.5 -3.7,8.2 -8.2,8.2 -4.5,0 -8.2,-3.7 -8.2,-8.2 0,-4.5 3.7,-8.2 8.2,-8.2 4.5,0 8.2,3.7 8.2,8.2 z"
       id="path4"
       style="fill:#aaaaaa;fill-opacity:1" /></g></svg>
