<?xml version="1.0" encoding="UTF-8" standalone="no"?>
<svg
   height="207.13062"
   width="206.25003"
   fill="#000000"
   viewBox="0 0 22.000003 22.093932"
   x="0px"
   y="0px"
   version="1.1"
   id="svg1347"
   sodipodi:docname="home.svg"
   inkscape:version="1.1 (c68e22c387, 2021-05-23)"
   xmlns:inkscape="http://www.inkscape.org/namespaces/inkscape"
   xmlns:sodipodi="http://sodipodi.sourceforge.net/DTD/sodipodi-0.dtd"
   xmlns="http://www.w3.org/2000/svg"
   xmlns:svg="http://www.w3.org/2000/svg">
  <defs
     id="defs1351" />
  <sodipodi:namedview
     id="namedview1349"
     pagecolor="#505050"
     bordercolor="#eeeeee"
     borderopacity="1"
     inkscape:pageshadow="0"
     inkscape:pageopacity="0"
     inkscape:pagecheckerboard="0"
     showgrid="false"
     inkscape:zoom="2.0529667"
     inkscape:cx="70.873045"
     inkscape:cy="119.09594"
     inkscape:window-width="1920"
     inkscape:window-height="1080"
     inkscape:window-x="0"
     inkscape:window-y="0"
     inkscape:window-maximized="1"
     inkscape:current-layer="svg1347" />
  <title
     id="title1341">Home</title>
  <g
     data-name="Layer 1"
     id="g1345"
     style="fill:#ffffff;fill-opacity:1"
     transform="translate(-4.9999974,-4.986068)">
    <path
       d="M 26,12.84 18,5.75 a 3,3 0 0 0 -4,0 l -8,7.09 a 3,3 0 0 0 -1,2.24 v 9 a 3,3 0 0 0 3,3 h 4 a 2,2 0 0 0 2,-2 V 20 a 1,1 0 0 1 1,-1 h 2 a 1,1 0 0 1 1,1 v 5 a 2,2 0 0 0 2,2 h 4 a 3,3 0 0 0 3,-3 V 15 A 3,3 0 0 0 26,12.84 Z M 25,24 a 1,1 0 0 1 -1,1 h -4 v -5 a 3,3 0 0 0 -3,-3 h -2 a 3,3 0 0 0 -3,3 v 5 H 8 A 1,1 0 0 1 7,24 v -9 a 1,1 0 0 1 0.33,-0.74 l 8,-7.09 a 1,1 0 0 1 1.33,0 l 8,7.09 A 1,1 0 0 1 24.99,15 Z"
       id="path1343"
       style="fill:#ffffff;fill-opacity:1" />
  </g>
</svg>
